<svg width="24" height="24" viewBox="0 0 24 24" fill="none" xmlns="http://www.w3.org/2000/svg">
<path fill-rule="evenodd" clip-rule="evenodd" d="M13 9C14.1046 9 15 9.89543 15 11V13C15 14.0357 14.2128 14.887 13.2041 14.9893L13 15H11L10.7959 14.9893C9.85435 14.8938 9.1062 14.1457 9.01074 13.2041L9 13V11C9 9.89543 9.89543 9 11 9H13ZM11 13H13V11H11V13Z" fill="currentColor"/>
<path fill-rule="evenodd" clip-rule="evenodd" d="M15.1465 4.47363C15.8138 4.74794 16.437 5.10705 17.002 5.53711L19.4775 4.83496L22 9.16504L20.1494 10.9385C20.195 11.2859 20.2188 11.6402 20.2188 12C20.2188 12.3598 20.195 12.7141 20.1494 13.0615L22 14.835L19.4775 19.165L17.002 18.4629C16.437 18.8929 15.8138 19.2521 15.1465 19.5264L14.5225 22H9.47754L8.85352 19.5264C8.1864 19.2521 7.56286 18.8938 6.99805 18.4639L4.52246 19.165L2 14.835L3.85059 13.0615C3.80496 12.7141 3.78125 12.3598 3.78125 12C3.78125 11.6402 3.80496 11.2859 3.85059 10.9385L2 9.16504L4.52246 4.83496L6.99805 5.53711C7.56291 5.10714 8.18632 4.74792 8.85352 4.47363L9.47754 2H14.5225L15.1465 4.47363ZM10.5459 5.94043L9.61328 6.32324C9.1089 6.53062 8.63772 6.80237 8.20996 7.12793L7.41406 7.7334L5.46973 7.18164L4.52051 8.81055L5.96582 10.1953L5.83398 11.1992C5.79968 11.4605 5.78125 11.7276 5.78125 12C5.78125 12.2725 5.79964 12.5404 5.83398 12.8018L5.96582 13.8057L4.52051 15.1885L5.46973 16.8174L7.41406 16.2666L8.20996 16.8721C8.53068 17.1162 8.87594 17.3297 9.24121 17.5088L9.61328 17.6768L10.5459 18.0596L11.0352 20H12.9639L13.4531 18.0596L14.3857 17.6768C14.8904 17.4694 15.3621 17.1978 15.79 16.8721L16.5859 16.2666L18.5293 16.8174L19.4785 15.1885L18.0342 13.8047L18.166 12.8008C18.2003 12.5395 18.2188 12.2724 18.2188 12C18.2188 11.7276 18.2003 11.4605 18.166 11.1992L18.0342 10.1953L19.4785 8.81055L18.5293 7.18164L16.5859 7.7334L15.79 7.12793C15.3621 6.80223 14.8904 6.53065 14.3857 6.32324L13.4531 5.94043L12.9639 4H11.0352L10.5459 5.94043Z" fill="currentColor"/>
</svg>
