<svg width="24" height="24" viewBox="0 0 24 24" fill="none" xmlns="http://www.w3.org/2000/svg">
<path d="M12 1L15 6H13V13.381L16 11.882L15.999 11H15V7H19V11H17.999L17.9997 12.4996C17.9999 12.8786 17.7859 13.2251 17.4469 13.3945L13 15.618V17.171C13.6665 17.4076 14.2279 17.8721 14.5853 18.4823C14.9428 19.0925 15.0732 19.8094 14.9536 20.5064C14.834 21.2035 14.4721 21.8359 13.9317 22.2921C13.3914 22.7483 12.7072 22.999 12 23C11.3208 23.0005 10.6614 22.7705 10.1299 22.3476C9.59834 21.9247 9.22605 21.334 9.0739 20.672C8.92176 20.01 8.99878 19.3159 9.29235 18.7034C9.58593 18.0909 10.0787 17.5961 10.69 17.3L6.42433 14.2986C6.15829 14.1114 5.99993 13.8065 5.99978 13.4812L5.99901 11.732C5.61784 11.5118 5.31996 11.172 5.15159 10.7652C4.98321 10.3585 4.95374 9.90752 5.06774 9.48232C5.18173 9.05712 5.43284 8.68141 5.7821 8.41344C6.13137 8.14548 6.55929 8.00024 6.99951 8.00024C7.43973 8.00024 7.86765 8.14548 8.21692 8.41344C8.56619 8.68141 8.81729 9.05712 8.93129 9.48232C9.04529 9.90752 9.01581 10.3585 8.84744 10.7652C8.67906 11.172 8.38119 11.5118 8.00001 11.732V13L11 15.086V6H9.00001L12 1Z" fill="currentColor"/>
</svg>
